# xmcd
#
# Track frame offsets:
#	150
#	18429
#	32403
#	50689
#	65087
#	77605
#	94735
#	108836
#	124254
#	138766
#	155491
#	171888
#	189315
#	206632
#	221099
#	238491
#	256271
#	271988
#	285180
#	299347
#	315606
#
# Disc length: 4445 seconds
# Revision: 0
# Processed by: cddbd v1.5.2PL0 Copyright (c) Steve Scherf et al.
# Submitted via: dBpowerAMP V12.0
#
DISCID=31115b15
DTITLE=Various Artist - Country Radio December 2007
DYEAR=2007
DGENRE=Country
TTITLE0=Rascal Flatts - Winner At A Losing Game
TTITLE1=Toby Keith - Get My Drink On
TTITLE2=Doc Walker - That Train
TTITLE3=Jason Blaine - Flirtin With Me
TTITLE4=Willie Mack - Don't Waste Your Pretty
TTITLE5=Brooks and Dunn - God Must Be Busy
TTITLE6=Corb Lund - I Wanna Be In The Cavalry
TTITLE7=Terri Clark - In my Next Life
TTITLE8=Emerson Drive - You Still Own Me
TTITLE9=Big and Rich - Between Raising Hell and Amazing Grace
TTITLE10=Travis Tritt - Something Stronger Than Me
TTITLE11=Trent Willmon - There Is God
TTITLE12=Lady Antebellum - Love Don't Live Here
TTITLE13=Jake Owen - Something About A Woman
TTITLE14=Crossin Dixon - Make You Mine
TTITLE15=Luke Bryan - We Rode In Trucks
TTITLE16=Laura Bryna - Make A Wish
TTITLE17=Jypsi - Love Is A Drug
TTITLE18=Shooter Jennings - Walk Of Life
TTITLE19=Blue Rodeo - 3 Hours Away
TTITLE20=Nikki Werner - Let Your Love Flow
EXTD=
EXTT0=
EXTT1=
EXTT2=
EXTT3=
EXTT4=
EXTT5=
EXTT6=
EXTT7=
EXTT8=
EXTT9=
EXTT10=
EXTT11=
EXTT12=
EXTT13=
EXTT14=
EXTT15=
EXTT16=
EXTT17=
EXTT18=
EXTT19=
EXTT20=
PLAYORDER=
